<svg width="1440" height="1077" viewBox="0 0 1440 1077" fill="none" xmlns="http://www.w3.org/2000/svg">
<g id="RS diagram 3">
<path id="Vector 11" d="M277 780.643C340.975 713.479 538.146 603.222 787 600.643" stroke="#A9AEB1" stroke-width="16" stroke-linecap="round" stroke-linejoin="round" stroke-dasharray="32 32"/>
<path id="Vector 1" d="M480.686 218.312L488.63 217.368C488.58 216.946 488.496 216.53 488.38 216.121L480.686 218.312ZM185.277 123.562C181.366 125.619 179.863 130.456 181.919 134.366C183.976 138.277 188.813 139.78 192.723 137.724L185.277 123.562ZM688.488 399.684C684.07 399.607 680.426 403.125 680.349 407.543C680.272 411.961 683.79 415.604 688.208 415.682L688.488 399.684ZM654.297 414.095C658.7 414.461 662.566 411.189 662.932 406.786C663.298 402.382 660.026 398.516 655.623 398.15L654.297 414.095ZM623.406 393.789C619.072 392.933 614.864 395.754 614.009 400.089C613.153 404.423 615.974 408.631 620.308 409.486L623.406 393.789ZM586.879 400.107C591.012 401.669 595.628 399.585 597.19 395.452C598.752 391.319 596.668 386.702 592.535 385.14L586.879 400.107ZM564.302 370.921C560.604 368.503 555.646 369.541 553.229 373.239C550.811 376.936 551.848 381.894 555.546 384.312L564.302 370.921ZM528.544 361.647C531.568 364.868 536.631 365.028 539.852 362.004C543.074 358.98 543.233 353.917 540.209 350.696L528.544 361.647ZM521.229 325.4C518.954 321.613 514.04 320.386 510.252 322.661C506.464 324.935 505.238 329.85 507.512 333.638L521.229 325.4ZM492.302 302.422C493.914 306.536 498.556 308.563 502.67 306.951C506.783 305.339 508.811 300.697 507.198 296.583L492.302 302.422ZM497.376 265.714C496.287 261.432 491.933 258.843 487.651 259.932C483.369 261.021 480.78 265.375 481.869 269.657L497.376 265.714ZM475.061 236.119C475.747 240.484 479.841 243.466 484.206 242.78C488.571 242.094 491.553 238 490.867 233.635L475.061 236.119ZM483.447 201.368C481.867 197.242 477.24 195.179 473.115 196.76C468.989 198.341 466.926 202.967 468.507 207.093L483.447 201.368ZM456.253 181.443C458.463 185.269 463.355 186.58 467.182 184.371C471.008 182.162 472.319 177.27 470.11 173.443L456.253 181.443ZM452.568 147.922C449.781 144.493 444.743 143.972 441.314 146.758C437.885 149.545 437.364 154.583 440.151 158.012L452.568 147.922ZM420.503 137.637C423.837 140.537 428.89 140.185 431.789 136.851C434.689 133.517 434.337 128.464 431.003 125.565L420.503 137.637ZM405.682 107.374C401.866 105.148 396.967 106.437 394.741 110.254C392.515 114.07 393.804 118.969 397.621 121.195L405.682 107.374ZM372.073 109.459C376.248 110.904 380.804 108.69 382.249 104.515C383.694 100.339 381.481 95.7833 377.305 94.3385L372.073 109.459ZM346.983 86.9767C342.611 86.3358 338.548 89.36 337.907 93.7315C337.266 98.1031 340.29 102.166 344.662 102.807L346.983 86.9767ZM316.408 101.108C320.825 101.015 324.33 97.358 324.237 92.9408C324.143 88.5235 320.487 85.0183 316.069 85.1118L316.408 101.108ZM285.37 88.0014C281.01 88.7153 278.054 92.8286 278.768 97.1888C279.482 101.549 283.595 104.505 287.955 103.791L285.37 88.0014ZM259.891 110.134C264.139 108.92 266.6 104.493 265.386 100.244C264.173 95.9958 259.745 93.5354 255.497 94.7487L259.891 110.134ZM226.679 104.523C222.564 106.132 220.532 110.772 222.141 114.887C223.75 119.002 228.39 121.033 232.505 119.425L226.679 104.523ZM205.831 131.107C209.809 129.184 211.474 124.4 209.551 120.422C207.628 116.444 202.845 114.779 198.867 116.702L205.831 131.107ZM705.06 399.816C699.531 399.816 694.004 399.781 688.488 399.684L688.208 415.682C693.842 415.78 699.466 415.816 705.06 415.816L705.06 399.816ZM655.623 398.15C644.644 397.237 633.871 395.854 623.406 393.789L620.308 409.486C631.479 411.691 642.86 413.144 654.297 414.095L655.623 398.15ZM592.535 385.14C582.638 381.4 573.193 376.734 564.302 370.921L555.546 384.312C565.507 390.825 576.009 395.999 586.879 400.107L592.535 385.14ZM540.209 350.696C533.391 343.434 527.032 335.064 521.229 325.4L507.512 333.638C513.877 344.236 520.917 353.523 528.544 361.647L540.209 350.696ZM507.198 296.583C503.522 287.204 500.231 276.943 497.376 265.714L481.869 269.657C484.874 281.474 488.363 292.373 492.302 302.422L507.198 296.583ZM490.867 233.635C490.041 228.383 489.294 222.962 488.63 217.368L472.742 219.256C473.429 225.042 474.203 230.661 475.061 236.119L490.867 233.635ZM488.38 216.121C487.025 211.362 485.383 206.421 483.447 201.368L468.507 207.093C470.278 211.716 471.769 216.209 472.991 220.502L488.38 216.121ZM470.11 173.443C465.134 164.824 459.302 156.209 452.568 147.922L440.151 158.012C446.316 165.6 451.673 173.509 456.253 181.443L470.11 173.443ZM431.003 125.565C423.349 118.907 414.919 112.761 405.682 107.374L397.621 121.195C405.941 126.047 413.559 131.597 420.503 137.637L431.003 125.565ZM377.305 94.3385C367.823 91.0572 357.72 88.5511 346.983 86.9767L344.662 102.807C354.407 104.236 363.536 106.505 372.073 109.459L377.305 94.3385ZM316.069 85.1118C306.262 85.3194 296.031 86.2559 285.37 88.0014L287.955 103.791C297.905 102.162 307.385 101.299 316.408 101.108L316.069 85.1118ZM255.497 94.7487C246.182 97.409 236.578 100.653 226.679 104.523L232.505 119.425C241.959 115.728 251.086 112.648 259.891 110.134L255.497 94.7487ZM198.867 116.702C194.392 118.865 189.862 121.151 185.277 123.562L192.723 137.724C197.154 135.394 201.523 133.19 205.831 131.107L198.867 116.702Z" fill="#A9AEB1"/>
<path id="Vector 3" d="M463.963 792.643L456.029 791.62C455.994 791.89 455.973 792.162 455.966 792.434L463.963 792.643ZM161.854 942.689C157.461 942.217 153.517 945.396 153.046 949.789C152.574 954.182 155.753 958.125 160.146 958.597L161.854 942.689ZM241.093 432.542C243.156 436.449 247.995 437.944 251.902 435.881C255.809 433.818 257.304 428.978 255.241 425.071L241.093 432.542ZM272.666 445.767C269.29 442.917 264.242 443.344 261.392 446.72C258.542 450.096 258.969 455.144 262.345 457.994L272.666 445.767ZM288.914 475.691C292.807 477.781 297.657 476.319 299.747 472.426C301.836 468.533 300.375 463.684 296.482 461.594L288.914 475.691ZM323.175 473.663C319.049 472.082 314.423 474.145 312.843 478.271C311.262 482.397 313.325 487.023 317.451 488.604L323.175 473.663ZM346.871 498.349C351.119 499.563 355.547 497.103 356.762 492.855C357.976 488.607 355.516 484.179 351.268 482.965L346.871 498.349ZM380.177 490.156C375.857 489.227 371.602 491.976 370.673 496.295C369.744 500.614 372.492 504.869 376.812 505.799L380.177 490.156ZM407.092 511.433C411.456 512.127 415.555 509.152 416.249 504.788C416.942 500.424 413.967 496.325 409.604 495.632L407.092 511.433ZM439.228 499.618C434.837 499.129 430.881 502.292 430.392 506.684C429.903 511.075 433.066 515.031 437.457 515.52L439.228 499.618ZM468.018 518.26C472.426 518.563 476.244 515.235 476.547 510.827C476.849 506.419 473.521 502.6 469.113 502.298L468.018 518.26ZM499.056 503.75C494.64 503.624 490.957 507.101 490.83 511.517C490.703 515.934 494.18 519.617 498.597 519.744L499.056 503.75ZM529.231 520.026C533.649 519.981 537.194 516.363 537.149 511.945C537.104 507.527 533.485 503.982 529.067 504.027L529.231 520.026ZM559.056 503.133C554.643 503.352 551.243 507.107 551.462 511.52C551.681 515.933 555.436 519.333 559.849 519.114L559.056 503.133ZM590.4 516.975C594.8 516.575 598.043 512.684 597.643 508.284C597.243 503.884 593.352 500.641 588.952 501.041L590.4 516.975ZM618.749 497.675C614.371 498.27 611.304 502.301 611.899 506.679C612.494 511.057 616.525 514.124 620.903 513.529L618.749 497.675ZM651.192 508.663C655.535 507.851 658.398 503.673 657.587 499.33C656.776 494.987 652.597 492.123 648.254 492.935L651.192 508.663ZM677.468 486.626C673.179 487.686 670.562 492.023 671.622 496.312C672.682 500.601 677.019 503.219 681.308 502.158L677.468 486.626ZM711.01 493.744C715.214 492.386 717.523 487.878 716.166 483.673C714.808 479.468 710.3 477.16 706.095 478.517L711.01 493.744ZM733.808 468.259C729.74 469.983 727.84 474.678 729.564 478.746C731.288 482.814 735.983 484.714 740.051 482.99L733.808 468.259ZM196.567 578.571C200.964 579.005 204.88 575.793 205.314 571.396C205.748 566.999 202.535 563.083 198.138 562.649L196.567 578.571ZM231.233 566.067C226.839 565.609 222.905 568.799 222.447 573.194C221.989 577.588 225.179 581.522 229.574 581.98L231.233 566.067ZM262.575 585.309C266.973 585.731 270.88 582.508 271.303 578.11C271.725 573.712 268.502 569.804 264.104 569.382L262.575 585.309ZM297 572.313C292.596 571.954 288.736 575.234 288.377 579.637C288.019 584.041 291.298 587.902 295.702 588.26L297 572.313ZM328.822 590.658C333.232 590.935 337.031 587.585 337.309 583.175C337.586 578.766 334.236 574.966 329.826 574.689L328.822 590.658ZM362.709 576.411C358.295 576.228 354.568 579.659 354.385 584.073C354.202 588.488 357.632 592.215 362.047 592.397L362.709 576.411ZM395.391 593.385C399.809 593.461 403.452 589.942 403.529 585.525C403.606 581.107 400.087 577.464 395.669 577.387L395.391 593.385ZM428.537 577.532C424.119 577.571 420.569 581.185 420.609 585.603C420.648 590.021 424.262 593.571 428.68 593.531L428.537 577.532ZM462.045 592.758C466.461 592.591 469.904 588.876 469.737 584.461C469.57 580.046 465.856 576.602 461.441 576.769L462.045 592.758ZM494.239 575.022C489.831 575.327 486.505 579.147 486.81 583.555C487.115 587.963 490.935 591.289 495.343 590.984L494.239 575.022ZM528.636 588.121C533.031 587.667 536.226 583.736 535.771 579.341C535.317 574.946 531.386 571.751 526.992 572.205L528.636 588.121ZM559.549 568.246C555.174 568.86 552.126 572.905 552.74 577.281C553.355 581.656 557.4 584.705 561.775 584.09L559.549 568.246ZM594.796 578.792C599.143 578.005 602.03 573.842 601.242 569.495C600.455 565.147 596.293 562.261 591.945 563.048L594.796 578.792ZM624.06 556.532C619.75 557.504 617.043 561.786 618.015 566.096C618.987 570.406 623.268 573.112 627.579 572.141L624.06 556.532ZM660.06 564.041C664.321 562.873 666.828 558.472 665.66 554.211C664.492 549.95 660.091 547.442 655.83 548.611L660.06 564.041ZM687.179 539.193C682.98 540.569 680.692 545.088 682.068 549.286C683.444 553.485 687.963 555.773 692.162 554.397L687.179 539.193ZM723.731 543.135C727.851 541.541 729.899 536.908 728.305 532.788C726.711 528.667 722.078 526.619 717.958 528.213L723.731 543.135ZM748.085 515.591C744.059 517.412 742.272 522.152 744.094 526.177C745.915 530.203 750.655 531.99 754.68 530.168L748.085 515.591ZM784.872 515.433C788.783 513.378 790.288 508.541 788.233 504.63C786.178 500.719 781.342 499.214 777.43 501.268L784.872 515.433ZM805.81 485.235C802.033 487.526 800.828 492.446 803.119 496.224C805.41 500.002 810.33 501.207 814.108 498.915L805.81 485.235ZM176.341 960.139C180.745 960.503 184.609 957.229 184.974 952.826C185.338 948.423 182.064 944.558 177.661 944.193L176.341 960.139ZM209.092 945.957C204.676 945.833 200.995 949.312 200.87 953.729C200.746 958.145 204.226 961.827 208.642 961.951L209.092 945.957ZM241.023 961.859C245.438 961.701 248.89 957.995 248.733 953.579C248.576 949.164 244.869 945.711 240.453 945.869L241.023 961.859ZM271.738 943.602C267.347 944.093 264.186 948.05 264.676 952.441C265.167 956.832 269.125 959.994 273.516 959.503L271.738 943.602ZM305.763 954.458C310.091 953.573 312.883 949.346 311.998 945.017C311.112 940.689 306.886 937.897 302.557 938.782L305.763 954.458ZM332.568 930.985C328.361 932.333 326.043 936.837 327.391 941.045C328.739 945.252 333.243 947.57 337.45 946.222L332.568 930.985ZM368.154 934.2C372.152 932.318 373.867 927.552 371.985 923.554C370.103 919.557 365.336 917.842 361.339 919.724L368.154 934.2ZM388.002 904.652C384.338 907.122 383.37 912.094 385.839 915.757C388.309 919.421 393.28 920.389 396.944 917.92L388.002 904.652ZM422.853 896.997C426.028 893.925 426.111 888.86 423.039 885.685C419.967 882.51 414.902 882.427 411.727 885.499L422.853 896.997ZM431.426 862.396C428.904 866.024 429.801 871.009 433.428 873.531C437.056 876.053 442.041 875.157 444.563 871.529L431.426 862.396ZM460.766 842.177C462.483 838.106 460.573 833.414 456.502 831.698C452.431 829.981 447.739 831.891 446.023 835.962L460.766 842.177ZM454.502 807.153C453.769 811.51 456.706 815.637 461.063 816.37C465.42 817.104 469.547 814.167 470.28 809.81L454.502 807.153ZM474.491 777.262C475.32 772.922 472.474 768.732 468.134 767.903C463.794 767.075 459.604 769.921 458.775 774.261L474.491 777.262ZM468.465 739.965C466.833 744.071 468.839 748.723 472.944 750.355C477.05 751.987 481.702 749.981 483.334 745.876L468.465 739.965ZM498.972 718.226C501.696 714.747 501.085 709.719 497.607 706.995C494.129 704.27 489.1 704.881 486.376 708.359L498.972 718.226ZM512.975 683.455C509.345 685.973 508.443 690.958 510.961 694.588C513.48 698.219 518.464 699.12 522.095 696.602L512.975 683.455ZM550.63 681.446C554.723 679.781 556.691 675.114 555.026 671.021C553.362 666.928 548.694 664.96 544.602 666.625L550.63 681.446ZM578.215 655.835C573.929 656.908 571.325 661.252 572.398 665.538C573.471 669.824 577.815 672.429 582.101 671.356L578.215 655.835ZM614.833 664.828C619.198 664.147 622.185 660.056 621.504 655.691C620.823 651.325 616.732 648.339 612.367 649.02L614.833 664.828ZM646.821 644.787C642.422 645.199 639.19 649.099 639.602 653.498C640.014 657.897 643.914 661.129 648.313 660.717L646.821 644.787ZM682.011 658.336C686.424 658.115 689.822 654.359 689.601 649.946C689.38 645.534 685.624 642.135 681.211 642.356L682.011 658.336ZM715.642 641.212C711.224 641.291 707.708 644.936 707.787 649.354C707.866 653.771 711.512 657.288 715.929 657.209L715.642 641.212ZM235.17 416.283C236.358 421.952 238.366 427.377 241.093 432.542L255.241 425.071C253.165 421.139 251.692 417.118 250.83 413.003L235.17 416.283ZM262.345 457.994C269.98 464.439 278.928 470.33 288.914 475.691L296.482 461.594C287.265 456.646 279.286 451.355 272.666 445.767L262.345 457.994ZM317.451 488.604C326.711 492.151 336.552 495.4 346.871 498.349L351.268 482.965C341.344 480.129 331.95 477.024 323.175 473.663L317.451 488.604ZM376.812 505.799C386.615 507.908 396.731 509.787 407.092 511.433L409.604 495.632C399.51 494.028 389.679 492.201 380.177 490.156L376.812 505.799ZM437.457 515.52C447.498 516.638 457.703 517.552 468.018 518.26L469.113 502.298C459.018 501.605 449.038 500.71 439.228 499.618L437.457 515.52ZM498.597 519.744C508.767 520.036 518.994 520.131 529.231 520.026L529.067 504.027C519.039 504.13 509.019 504.036 499.056 503.75L498.597 519.744ZM559.849 519.114C570.086 518.606 580.286 517.894 590.4 516.975L588.952 501.041C579.062 501.94 569.08 502.636 559.056 503.133L559.849 519.114ZM620.903 513.529C631.16 512.136 641.275 510.515 651.192 508.663L648.254 492.935C638.61 494.736 628.757 496.315 618.749 497.675L620.903 513.529ZM681.308 502.158C691.522 499.633 701.446 496.83 711.01 493.744L706.095 478.517C696.915 481.48 687.35 484.183 677.468 486.626L681.308 502.158ZM740.051 482.99C744.909 480.932 749.636 478.781 754.218 476.536L747.18 462.167C742.874 464.277 738.413 466.307 733.808 468.259L740.051 482.99ZM180.338 577.077C185.333 577.492 190.748 577.997 196.567 578.571L198.138 562.649C192.273 562.07 186.769 561.556 181.662 561.132L180.338 577.077ZM229.574 581.98C239.871 583.054 250.902 584.188 262.575 585.309L264.104 569.382C252.496 568.267 241.516 567.139 231.233 566.067L229.574 581.98ZM295.702 588.26C306.361 589.127 317.417 589.941 328.822 590.658L329.826 574.689C318.531 573.979 307.573 573.173 297 572.313L295.702 588.26ZM362.047 592.397C372.924 592.848 384.05 593.187 395.391 593.385L395.669 577.387C384.465 577.192 373.467 576.857 362.709 576.411L362.047 592.397ZM428.68 593.531C439.653 593.433 450.784 593.183 462.045 592.758L461.441 576.769C450.342 577.189 439.364 577.435 428.537 577.532L428.68 593.531ZM495.343 590.984C506.355 590.222 517.461 589.275 528.636 588.121L526.992 572.205C516.005 573.341 505.079 574.272 494.239 575.022L495.343 590.984ZM561.775 584.09C572.748 582.549 583.763 580.79 594.796 578.792L591.945 563.048C581.128 565.006 570.322 566.732 559.549 568.246L561.775 584.09ZM627.579 572.141C638.417 569.697 649.252 567.004 660.06 564.041L655.83 548.611C645.267 551.506 634.669 554.141 624.06 556.532L627.579 572.141ZM692.162 554.397C702.738 550.93 713.269 547.183 723.731 543.135L717.958 528.213C707.765 532.156 697.499 535.81 687.179 539.193L692.162 554.397ZM754.68 530.168C764.838 525.573 774.908 520.667 784.872 515.433L777.43 501.268C767.753 506.352 757.965 511.121 748.085 515.591L754.68 530.168ZM814.108 498.915C818.892 496.014 823.644 493.029 828.363 489.958L819.637 476.547C815.061 479.525 810.451 482.42 805.81 485.235L814.108 498.915ZM160.146 958.597C165.633 959.186 171.032 959.7 176.341 960.139L177.661 944.193C172.483 943.765 167.215 943.264 161.854 942.689L160.146 958.597ZM208.642 961.951C219.87 962.267 230.658 962.227 241.023 961.859L240.453 945.869C230.443 946.225 219.995 946.264 209.092 945.957L208.642 961.951ZM273.516 959.503C284.841 958.237 295.581 956.54 305.763 954.458L302.557 938.782C292.868 940.764 282.604 942.387 271.738 943.602L273.516 959.503ZM337.45 946.222C348.474 942.69 358.693 938.654 368.154 934.2L361.339 919.724C352.527 923.873 342.955 927.658 332.568 930.985L337.45 946.222ZM396.944 917.92C406.656 911.374 415.262 904.342 422.853 896.997L411.727 885.499C404.814 892.188 396.939 898.628 388.002 904.652L396.944 917.92ZM444.563 871.529C451.331 861.795 456.669 851.897 460.766 842.177L446.023 835.962C442.347 844.682 437.542 853.599 431.426 862.396L444.563 871.529ZM470.28 809.81C471.276 803.891 471.821 798.205 471.96 792.852L455.966 792.434C455.846 797.006 455.379 801.944 454.502 807.153L470.28 809.81ZM471.897 793.666C472.629 787.996 473.485 782.53 474.491 777.262L458.775 774.261C457.701 779.886 456.796 785.673 456.029 791.62L471.897 793.666ZM483.334 745.876C487.391 735.668 492.506 726.48 498.972 718.226L486.376 708.359C478.86 717.955 473.019 728.51 468.465 739.965L483.334 745.876ZM522.095 696.602C530.197 690.982 539.625 685.921 550.63 681.446L544.602 666.625C532.653 671.485 522.164 677.082 512.975 683.455L522.095 696.602ZM582.101 671.356C592.077 668.858 602.959 666.681 614.833 664.828L612.367 649.02C600.082 650.936 588.721 653.204 578.215 655.835L582.101 671.356ZM648.313 660.717C658.905 659.725 670.125 658.932 682.011 658.336L681.211 642.356C669.119 642.962 657.667 643.771 646.821 644.787L648.313 660.717ZM715.929 657.209C721.479 657.109 727.152 657.045 732.952 657.017L732.873 641.017C727.007 641.046 721.264 641.111 715.642 641.212L715.929 657.209Z" fill="#A9AEB1"/>
<path id="Vector 2" d="M367.709 326.712C368.112 331.112 372.005 334.353 376.405 333.95C380.805 333.547 384.046 329.654 383.643 325.254L367.709 326.712ZM389.464 353.226C388.017 349.051 383.459 346.841 379.285 348.289C375.11 349.736 372.9 354.294 374.347 358.468L389.464 353.226ZM389.623 387.578C392.25 391.131 397.26 391.881 400.812 389.255C404.365 386.628 405.115 381.618 402.488 378.066L389.623 387.578ZM422.405 398.099C418.9 395.41 413.878 396.072 411.189 399.577C408.499 403.083 409.161 408.105 412.667 410.794L422.405 398.099ZM440.116 427.518C444.089 429.451 448.877 427.796 450.809 423.823C452.742 419.85 451.088 415.062 447.114 413.13L440.116 427.518ZM474.546 424.121C470.35 422.735 465.826 425.012 464.44 429.208C463.054 433.403 465.331 437.927 469.526 439.313L474.546 424.121ZM499.696 447.719C503.998 448.726 508.302 446.055 509.309 441.753C510.316 437.451 507.645 433.148 503.343 432.141L499.696 447.719ZM532.878 438.045C528.522 437.305 524.391 440.236 523.651 444.592C522.911 448.948 525.842 453.079 530.198 453.819L532.878 438.045ZM560.776 458.285C565.16 458.832 569.158 455.721 569.704 451.336C570.251 446.952 567.14 442.955 562.756 442.408L560.776 458.285ZM592.879 445.641C588.479 445.238 584.586 448.478 584.183 452.878C583.78 457.278 587.02 461.171 591.42 461.574L592.879 445.641ZM622.232 463.993C626.64 464.286 630.452 460.95 630.745 456.542C631.038 452.133 627.702 448.322 623.294 448.028L622.232 463.993ZM653.589 449.741C649.175 449.532 645.428 452.94 645.219 457.354C645.01 461.767 648.419 465.514 652.832 465.723L653.589 449.741ZM683.56 466.937C687.976 467.079 691.672 463.615 691.814 459.199C691.957 454.783 688.492 451.087 684.076 450.945L683.56 466.937ZM714.636 451.741C710.218 451.651 706.565 455.159 706.475 459.577C706.385 463.994 709.893 467.648 714.311 467.738L714.636 451.741ZM744.914 468.209C749.332 468.257 752.953 464.714 753 460.296C753.048 455.878 749.506 452.258 745.088 452.21L744.914 468.209ZM775.604 452.42C771.186 452.406 767.593 455.976 767.578 460.394C767.564 464.813 771.134 468.406 775.552 468.42L775.604 452.42ZM367 310.643C367 316.159 367.234 321.515 367.709 326.712L383.643 325.254C383.215 320.576 383 315.708 383 310.643H367ZM374.347 358.468C378.02 369.06 383.096 378.751 389.623 387.578L402.488 378.066C396.951 370.577 392.622 362.333 389.464 353.226L374.347 358.468ZM412.667 410.794C420.772 417.012 429.927 422.562 440.116 427.518L447.114 413.13C437.756 408.578 429.544 403.575 422.405 398.099L412.667 410.794ZM469.526 439.313C478.925 442.419 488.98 445.211 499.696 447.719L503.343 432.141C493.025 429.725 483.434 427.058 474.546 424.121L469.526 439.313ZM530.198 453.819C539.931 455.472 550.122 456.956 560.776 458.285L562.756 442.408C552.309 441.105 542.353 439.654 532.878 438.045L530.198 453.819ZM591.42 461.574C601.336 462.483 611.605 463.286 622.232 463.993L623.294 448.028C612.787 447.33 602.651 446.536 592.879 445.641L591.42 461.574ZM652.832 465.723C662.791 466.194 673.033 466.597 683.56 466.937L684.076 450.945C673.622 450.608 663.46 450.208 653.589 449.741L652.832 465.723ZM714.311 467.738C724.276 467.94 734.477 468.096 744.914 468.209L745.088 452.21C734.696 452.097 724.546 451.942 714.636 451.741L714.311 467.738ZM775.552 468.42C780.649 468.437 785.798 468.445 791 468.445V452.445C785.815 452.445 780.683 452.437 775.604 452.42L775.552 468.42Z" fill="#A9AEB1"/>
<g id="Group 3">
<g id="Group 2">
<rect id="Rectangle 12" x="963.388" y="705.939" width="292.218" height="364.914" rx="20" transform="rotate(-180 963.388 705.939)" fill="white" stroke="black" stroke-width="16"/>
<rect id="Rectangle 13" x="995.974" y="738.023" width="292.218" height="364.914" rx="20" transform="rotate(-180 995.974 738.023)" fill="white" stroke="black" stroke-width="16"/>
<rect id="Rectangle 14" x="1029.12" y="771.254" width="292.218" height="364.914" rx="20" transform="rotate(-180 1029.12 771.254)" fill="white" stroke="black" stroke-width="16"/>
</g>
<path id="Vector 5" d="M787.042 471.999H884.127" stroke="#A9AEB1" stroke-width="16" stroke-linecap="round" stroke-linejoin="round"/>
<path id="Vector 6" d="M787.042 519.463H981.212" stroke="#A9AEB1" stroke-width="16" stroke-linecap="round" stroke-linejoin="round"/>
<path id="Vector 7" d="M787.042 566.927H981.212" stroke="#A9AEB1" stroke-width="16" stroke-linecap="round" stroke-linejoin="round"/>
<path id="Vector 8" d="M787.042 614.39H884.127" stroke="#A9AEB1" stroke-width="16" stroke-linecap="round" stroke-linejoin="round"/>
<path id="Vector 9" d="M787.042 661.854H981.212" stroke="#A9AEB1" stroke-width="16" stroke-linecap="round" stroke-linejoin="round"/>
<path id="Vector 10" d="M787.042 709.318H981.212" stroke="#A9AEB1" stroke-width="16" stroke-linecap="round" stroke-linejoin="round"/>
</g>
<g id="Diagram pill">
<path id="Rectangle 15" d="M226.738 379.842L283.814 389.409C293.073 390.961 299.322 399.725 297.769 408.985L288.203 466.061C286.651 475.321 277.886 481.569 268.626 480.017L211.55 470.45C202.291 468.898 196.043 460.133 197.595 450.873L207.161 393.798C208.714 384.538 217.478 378.29 226.738 379.842Z" fill="white" stroke="#A9AEB1" stroke-width="16"/>
</g>
<g id="Diagram pill_2">
<path id="Rectangle 15_2" d="M155.315 83.4553L212.475 92.5083C221.748 93.977 228.075 102.685 226.606 111.958L217.553 169.118C216.084 178.391 207.376 184.718 198.103 183.249L140.944 174.196C131.67 172.727 125.343 164.019 126.812 154.746L135.865 97.5866C137.334 88.3134 146.042 81.9865 155.315 83.4553Z" fill="white" stroke="#A9AEB1" stroke-width="16"/>
</g>
<g id="Diagram pill_3">
<path id="Rectangle 15_3" d="M162.238 340.235L220.082 338.422C229.466 338.128 237.312 345.497 237.606 354.881L239.419 412.725C239.713 422.109 232.344 429.955 222.96 430.249L165.116 432.062C155.732 432.356 147.886 424.987 147.592 415.603L145.779 357.759C145.485 348.375 152.854 340.529 162.238 340.235Z" fill="white" stroke="#A9AEB1" stroke-width="16"/>
</g>
<g id="Diagram pill_4">
<path id="Rectangle 15_4" d="M126.238 904.235L184.082 902.422C193.466 902.128 201.312 909.497 201.606 918.881L203.419 976.725C203.713 986.109 196.344 993.955 186.96 994.249L129.116 996.062C119.732 996.356 111.886 988.987 111.592 979.603L109.779 921.759C109.485 912.375 116.854 904.529 126.238 904.235Z" fill="white" stroke="#A9AEB1" stroke-width="16"/>
</g>
<g id="Diagram pill_5">
<path id="Rectangle 15_5" d="M417 799.643H475C484.389 799.643 492 807.254 492 816.643V874.643C492 884.032 484.389 891.643 475 891.643H417C407.611 891.643 400 884.032 400 874.643V816.643C400 807.254 407.611 799.643 417 799.643Z" fill="white" stroke="#A9AEB1" stroke-width="16"/>
</g>
<g id="Diagram pill_6">
<path id="Rectangle 15_6" d="M273 717.643H331C340.389 717.643 348 725.254 348 734.643V792.643C348 802.032 340.389 809.643 331 809.643H273C263.611 809.643 256 802.032 256 792.643V734.643C256 725.254 263.611 717.643 273 717.643Z" fill="white" stroke="#A9AEB1" stroke-width="16"/>
</g>
<g id="Diagram pill_7">
<path id="Rectangle 15_7" d="M206.17 687.069L263.826 680.763C273.16 679.742 281.553 686.48 282.574 695.813L288.88 753.47C289.901 762.803 283.163 771.196 273.829 772.217L216.173 778.523C206.84 779.544 198.446 772.806 197.426 763.472L191.119 705.816C190.099 696.483 196.837 688.09 206.17 687.069Z" fill="white" stroke="#A9AEB1" stroke-width="16"/>
</g>
<g id="Diagram pill_8">
<path id="Rectangle 15_8" d="M293.848 215.707L351.195 207.93C360.499 206.668 369.064 213.188 370.326 222.491L378.103 279.838C379.365 289.142 372.845 297.707 363.542 298.969L306.195 306.746C296.891 308.008 288.326 301.488 287.064 292.185L279.287 234.838C278.025 225.534 284.545 216.969 293.848 215.707Z" fill="white" stroke="#A9AEB1" stroke-width="16"/>
</g>
<g id="Diagram pill_9">
<path id="Rectangle 15_9" d="M336.01 284.653L393.488 277.904C402.812 276.809 411.259 283.48 412.354 292.805L419.103 350.282C420.198 359.607 413.527 368.054 404.202 369.149L346.725 375.898C337.4 376.993 328.953 370.321 327.858 360.997L321.109 303.519C320.014 294.195 326.686 285.748 336.01 284.653Z" fill="white" stroke="#A9AEB1" stroke-width="16"/>
</g>
<g id="Diagram pill_10">
<path id="Rectangle 15_10" d="M108.822 514.581L165.932 523.939C175.198 525.458 181.478 534.2 179.959 543.465L170.6 600.575C169.082 609.84 160.34 616.12 151.075 614.602L93.9648 605.243C84.6995 603.725 78.4194 594.983 79.9377 585.718L89.2966 528.608C90.8149 519.342 99.5568 513.062 108.822 514.581Z" fill="white" stroke="#A9AEB1" stroke-width="16"/>
</g>
<path id="Vector" d="M1118.45 628.454H1244.59V659.128C1244.59 674.636 1263.34 682.59 1274.39 671.485L1362.91 582.499C1369.7 575.67 1369.7 564.616 1362.91 557.786L1274.39 468.801C1263.34 457.696 1244.59 465.65 1244.59 481.158V511.165L1118.45 511.165C1108.77 511.165 1101 519.038 1101 528.661L1101 610.958C1101 620.581 1108.77 628.454 1118.45 628.454Z" fill="white" stroke="black" stroke-width="16"/>
<rect id="Rectangle 16" x="0.5" y="0.5" width="1438" height="1075" stroke="#A9AEB1"/>
</g>
</svg>
