<svg>
<defs>
<symbol id="covid"
    xmlns="http://www.w3.org/2000/svg" fill="none" viewBox="0 0 24 24">
  <path fill="#005EA2" fill-rule="evenodd" d="M23.106 10.2c-.492 0-.9.408-.9.9h-1.848a8.374 8.374 0 0 0-1.824-4.38l1.308-1.308.012.012a.905.905 0 0 0 1.272 0 .905.905 0 0 0 0-1.272L19.854 2.88a.905.905 0 0 0-1.272 0 .902.902 0 0 0-.012 1.26l-1.308 1.308a8.418 8.418 0 0 0-4.368-1.812V1.8h.012c.492 0 .9-.408.9-.9 0-.492-.408-.9-.9-.9h-1.8c-.492 0-.9.408-.9.9 0 .492.396.888.888.9v1.86a8.32 8.32 0 0 0-4.368 1.812L5.418 4.164l.012-.012a.905.905 0 0 0 0-1.272.905.905 0 0 0-1.272 0L2.886 4.152a.905.905 0 0 0 0 1.272.902.902 0 0 0 1.26.012l1.308 1.308a8.267 8.267 0 0 0-1.8 4.356H1.806c0-.492-.408-.9-.9-.9-.492 0-.9.408-.9.9v1.8c0 .492.408.9.9.9.492 0 .9-.408.9-.9h1.848a8.464 8.464 0 0 0 1.8 4.356l-1.308 1.308a.89.89 0 0 0-1.26.012.905.905 0 0 0 0 1.272l1.272 1.272a.905.905 0 0 0 1.272 0 .905.905 0 0 0 0-1.272l-.012-.012 1.308-1.308a8.379 8.379 0 0 0 4.356 1.812v1.86a.904.904 0 0 0-.888.9c0 .492.408.9.9.9h1.8c.492 0 .9-.408.9-.9 0-.492-.408-.9-.9-.9h-.012v-1.848a8.32 8.32 0 0 0 4.368-1.812l1.308 1.308a.89.89 0 0 0 .012 1.26.905.905 0 0 0 1.272 0l1.272-1.272a.905.905 0 0 0 0-1.272.905.905 0 0 0-1.272 0l-.012.012-1.308-1.308a8.43 8.43 0 0 0 1.824-4.38h1.848c0 .492.408.9.9.9.492 0 .9-.408.9-.9v-1.8c.012-.48-.396-.888-.888-.888Zm-9-3c.66 0 1.2.54 1.2 1.2 0 .66-.54 1.2-1.2 1.2-.66 0-1.2-.54-1.2-1.2 0-.66.54-1.2 1.2-1.2Zm-2.1 6c-.66 0-1.2-.54-1.2-1.2 0-.66.54-1.2 1.2-1.2.66 0 1.2.54 1.2 1.2 0 .66-.54 1.2-1.2 1.2Zm-2.1-6c.66 0 1.2.54 1.2 1.2 0 .66-.54 1.2-1.2 1.2-.66 0-1.2-.54-1.2-1.2 0-.66.54-1.2 1.2-1.2Zm-2.1 6c-.66 0-1.2-.54-1.2-1.2 0-.66.54-1.2 1.2-1.2.66 0 1.2.54 1.2 1.2 0 .66-.54 1.2-1.2 1.2Zm2.1 3.6c-.66 0-1.2-.54-1.2-1.2 0-.66.54-1.2 1.2-1.2.66 0 1.2.54 1.2 1.2 0 .66-.54 1.2-1.2 1.2Zm4.2 0c-.66 0-1.2-.54-1.2-1.2 0-.66.54-1.2 1.2-1.2.66 0 1.2.54 1.2 1.2 0 .66-.54 1.2-1.2 1.2Zm.9-4.8c0-.66.54-1.2 1.2-1.2.66 0 1.2.54 1.2 1.2 0 .66-.54 1.2-1.2 1.2-.66 0-1.2-.54-1.2-1.2Z" clip-rule="evenodd"/>
</symbol>
<symbol id="csv"
    xmlns="http://www.w3.org/2000/svg" viewBox="0 0 24 24">
  <path fill="#fff" d="M1.513 4.516a.92.92 0 0 1 .919-.919h19.286a.92.92 0 0 1 .919.919v14.968a.92.92 0 0 1-.919.919H2.432a.92.92 0 0 1-.919-.919V4.516Z"/>
  <path fill="#dfe1e6" d="M13.517 8.161c0-.396.325-.721.721-.721h6.244c.396 0 .721.325.721.721a.724.724 0 0 1-.721.721h-6.244a.724.724 0 0 1-.721-.721Zm0 3.843c0-.396.325-.721.721-.721h6.244c.396 0 .721.325.721.721a.724.724 0 0 1-.721.721h-6.244a.724.724 0 0 1-.721-.721Zm0 3.835c0-.396.325-.721.721-.721h6.244c.396 0 .721.325.721.721a.724.724 0 0 1-.721.721h-6.244a.719.719 0 0 1-.721-.721Z"/>
  <path fill="#0b8938" d="M22.59 3.003h-7.607c-.032 0-.055 0-.087.008V1.196L0 2.9v18.152l14.896 1.752v-1.862c.032 0 .055.007.087.007h7.607c.372 0 .729-.142.998-.404.261-.261.412-.61.412-.982V4.39c0-.373-.151-.721-.412-.983a1.466 1.466 0 0 0-.998-.404ZM4.231 13.058c.254 0 .507-.04.745-.119l.135.737c-.167.079-.531.166-1.015.15-1.323-.031-1.988-.911-1.988-2.052 0-1.363.911-2.147 2.076-2.179.459-.016.816.079.974.159l-.182.745a1.856 1.856 0 0 0-.753-.143c-.697.008-1.228.459-1.228 1.355.008.816.46 1.331 1.236 1.347Zm2.48.832c-.467-.016-.935-.151-1.157-.286l.19-.776c.317.166.666.261 1.031.277.435.008.665-.174.665-.451 0-.27-.198-.42-.697-.602-.682-.246-1.125-.634-1.125-1.237 0-.713.578-1.275 1.553-1.299.475-.016.832.079 1.085.19l-.214.793a2.004 2.004 0 0 0-.887-.191c-.404.008-.602.198-.602.42 0 .27.229.389.768.587.753.277 1.11.673 1.11 1.283-.008.721-.563 1.323-1.72 1.292Zm4.619.055-1.204-.031-1.418-4.366 1.093-.024.547 1.854c.151.523.293 1.03.404 1.585h.024c.111-.531.261-1.062.412-1.569l.594-1.918 1.133-.031-1.585 4.5Zm11.862 5.61a.598.598 0 0 1-.174.42.613.613 0 0 1-.428.174h-7.607c-.032 0-.055 0-.087-.008V3.803c.032-.008.055-.008.087-.008h7.607a.597.597 0 0 1 .602.595v15.165Z"/>
</symbol>
<symbol id="healthkit" xmlns="http://www.w3.org/2000/svg" fill="none" viewBox="0 0 24 24">
  <path fill="#005EA2" fill-rule="evenodd" d="M21.6 4.8h-4.8V2.4c0-1.32-1.08-2.4-2.4-2.4H9.6C8.28 0 7.2 1.08 7.2 2.4v2.4H2.4C1.08 4.8 0 5.88 0 7.2v14.4C0 22.92 1.08 24 2.4 24h19.2c1.32 0 2.4-1.08 2.4-2.4V7.2c0-1.32-1.08-2.4-2.4-2.4Zm-12-2.4h4.8v2.4H9.6V2.4Zm7.2 13.2h-3.6v3.6h-2.4v-3.6H7.2v-2.4h3.6V9.6h2.4v3.6h3.6v2.4Z" clip-rule="evenodd"/>
</symbol>
<symbol id="mpox" xmlns="http://www.w3.org/2000/svg" fill="none" viewBox="0 0 24 24">
  <g clip-path="url(#a)" transform="translate(.75 -.197) scale(.39344)">
    <path fill="#005EA2" d="M34.312 4.313A3.808 3.808 0 0 0 30.5.5a3.808 3.808 0 0 0-3.813 3.813v24.78A1.912 1.912 0 0 1 24.781 31a1.912 1.912 0 0 1-1.906-1.906V8.125a3.808 3.808 0 0 0-3.813-3.813 3.808 3.808 0 0 0-3.812 3.813v32.406c0 .179 0 .37.012.548l-7.208-6.862a4.776 4.776 0 0 0-6.744.167c-1.822 1.906-1.74 4.92.167 6.743L14.87 53.875A27.618 27.618 0 0 0 33.93 61.5h2.288c11.58 0 20.968-9.388 20.968-20.969V15.75a3.808 3.808 0 0 0-3.812-3.813 3.808 3.808 0 0 0-3.813 3.813v13.344A1.912 1.912 0 0 1 47.656 31a1.912 1.912 0 0 1-1.906-1.906V8.125a3.808 3.808 0 0 0-3.813-3.813 3.808 3.808 0 0 0-3.812 3.813v20.969A1.912 1.912 0 0 1 36.219 31a1.912 1.912 0 0 1-1.907-1.906V4.312ZM28.594 40.53a1.906 1.906 0 1 1 3.812 0 1.906 1.906 0 0 1-3.812 0Zm9.53 1.907a1.906 1.906 0 1 1 0 3.812 1.906 1.906 0 0 1 0-3.813Zm5.72-1.907a1.906 1.906 0 1 1 3.812 0 1.906 1.906 0 0 1-3.812 0Zm-1.907 9.532a1.906 1.906 0 1 1 0 3.812 1.906 1.906 0 0 1 0-3.813Zm-13.343 1.906a1.906 1.906 0 1 1 3.812 0 1.906 1.906 0 0 1-3.812 0Zm-5.72-5.719a1.906 1.906 0 1 1 0 3.812 1.906 1.906 0 0 1 0-3.812Z"/>
  </g>
  <defs>
    <clipPath id="a">
      <path fill="#fff" d="M0 .5h61v61H0z"/>
    </clipPath>
  </defs>
</symbol>
<symbol id="hl7" xmlns="http://www.w3.org/2000/svg" viewBox="0 0 24 24">
  <path fill="#ec1f28" d="M6.31 7.694v3.455H2.037V7.694H-.005v8.612h2.04V12.85h4.276v3.455H8.36V7.694Zm2.922 8.612h7.001v-1.713h-4.961V7.694h-2.04Zm7.698-8.612v1.67h4.931l-4.336 6.942h2.153l4.317-6.941v-1.67Z"/>
</symbol>
<symbol id="fhir" xmlns="http://www.w3.org/2000/svg" fill-rule="evenodd" clip-rule="evenodd" image-rendering="optimizeQuality" shape-rendering="geometricPrecision" text-rendering="geometricPrecision" viewBox="0 0 24 24">
  <path fill="#f69f00" d="M15.219 0h.06a8.502 8.502 0 0 1-.36 4.5l-.48 1.02a.148.148 0 0 0-.03-.12.444.444 0 0 1-.27 0c.284-.448.506-.932.66-1.44a8.436 8.436 0 0 0 .42-3.96Z" opacity=".692"/>
  <path fill="#e21018" d="M6.219 18.48c-.014.077.006.137.06.18-.01.06.01.1.06.12v.06c-.01.06.01.1.06.12v.06c0 .04.02.06.06.06-.01.06.01.1.06.12.134.369.314.709.54 1.02.162.333.364.645.6.93-.014.024-.034.034-.06.03-1.797-1.408-2.947-3.228-3.45-5.46a6.892 6.892 0 0 1 .72-4.26 9.853 9.853 0 0 1 2.01-2.67l3.54-3.18c.04-.04.08-.04.12 0a36.818 36.818 0 0 0-3.87 5.19c-1.186 2.148-1.446 4.408-.78 6.78.092.306.202.607.33.9Z" opacity=".99"/>
  <path fill="#e21118" d="M12.459 24h-.54c-1.096-1.769-1.446-3.669-1.05-5.7.12-.5.302-.984.54-1.44l2.52-3.6a15.125 15.125 0 0 0 1.98-4.68c.111-.715.171-1.437.18-2.16a13.319 13.319 0 0 1 2.1 4.74 11.77 11.77 0 0 1-.12 6.42 7.81 7.81 0 0 1-.63 1.41 6.484 6.484 0 0 0 2.49-2.79c-.363 4.653-2.853 7.253-7.47 7.8Z" opacity=".996"/>
  <path fill="#fdc700" d="M14.139 5.4a.444.444 0 0 0 .27 0 .148.148 0 0 1 .03.12l-.12.36-.54.96c-.189.34-.41.662-.66.96a5.49 5.49 0 0 1-.6-.06 24.415 24.415 0 0 0 1.62-2.34Z"/>
  <path fill="#e86412" d="M14.319 5.88c.02.73 0 1.45-.06 2.16a.598.598 0 0 0-.09-.42c-.205-.01-.435.01-.69.06.169-.25.273-.539.3-.84l.54-.96Z"/>
  <path fill="#e12317" d="M13.779 6.84c-.027.301-.131.59-.3.84-.213.447-.475.87-.78 1.26l-.48.6-.54.6-.54.48a108.08 108.08 0 0 1 1.98-2.82c.25-.298.471-.62.66-.96Z"/>
  <path fill="#df1418" d="M12.999 0h.06a17.65 17.65 0 0 1 1.74 3.96 5.869 5.869 0 0 1-.66 1.44 24.415 24.415 0 0 1-1.62 2.34 36.985 36.985 0 0 0-2.76 3.36 6.77 6.77 0 0 0-.78 1.32 3.471 3.471 0 0 0-.3.54c-.52-.04-1.03-.04-1.53 0a.392.392 0 0 1-.27-.18 16.554 16.554 0 0 1 2.55-4.08 62.265 62.265 0 0 0 2.16-2.46 6.651 6.651 0 0 0 1.5-3.9c.036-.781.006-1.564-.09-2.34Z" opacity=".993"/>
  <path fill="#fedf14" d="M12.519 7.74c.181.029.381.049.6.06a108.08 108.08 0 0 0-1.98 2.82 2.747 2.747 0 0 0-.42.54 3.863 3.863 0 0 0-.96-.06 36.985 36.985 0 0 1 2.76-3.36Z"/>
  <path fill="#ed800b" d="M14.259 8.04a4.146 4.146 0 0 1-.12.9h-1.44c.305-.39.567-.813.78-1.26.255-.05.485-.07.69-.06a.598.598 0 0 1 .09.42Z"/>
  <path fill="#df1619" d="M14.919 4.5c.748 3.12.148 5.94-1.8 8.46-.198-.03-.399-.04-.6-.03a.138.138 0 0 1-.06-.09l.42-.72c.165-.246.305-.507.42-.78.217-.33.377-.69.48-1.08.092-.236.172-.476.24-.72.059-.196.099-.397.12-.6.073-.295.113-.597.12-.9.06-.71.08-1.43.06-2.16l.12-.36.48-1.02Z" opacity=".987"/>
  <path fill="#f09006" d="M12.699 8.94h1.44a3.237 3.237 0 0 1-.12.6c-.6-.016-1.2-.016-1.8 0l.48-.6Z"/>
  <path fill="#f39d01" d="M14.019 9.54a7.594 7.594 0 0 1-.24.72 3.82 3.82 0 0 0-.33-.12 6.64 6.64 0 0 1-1.77 0l.54-.6c.6-.016 1.2-.016 1.8 0Z"/>
  <path fill="#f7ae00" d="M11.679 10.14a6.64 6.64 0 0 0 1.77 0c.112.035.222.075.33.12-.103.39-.263.75-.48 1.08-.88.015-1.76.015-2.64 0a.351.351 0 0 1 .06-.18c.117-.197.258-.378.42-.54l.54-.48Z"/>
  <path fill="#fabc00" d="M10.659 11.34c.883.015 1.763.015 2.64 0a4.614 4.614 0 0 1-.42.78 52.863 52.863 0 0 1-2.64-.12c.095-.251.235-.471.42-.66Z"/>
  <path fill="#fee640" d="M9.759 11.1c.332-.02.652 0 .96.06a.351.351 0 0 0-.06.18 1.901 1.901 0 0 0-.42.66l-.42.6a1.212 1.212 0 0 0-.21-.12l-.54.06a.262.262 0 0 1-.09-.12 6.77 6.77 0 0 1 .78-1.32Z"/>
  <path fill="#fdc800" d="M10.239 12c.918.064 1.798.104 2.64.12l-.42.72-.24.24a20.103 20.103 0 0 0-2.43 0 .202.202 0 0 1-.09-.18.988.988 0 0 0 .12-.3l.42-.6Z"/>
  <path fill="#e33e17" d="M12.459 12.84c.007.037.029.07.06.09.23-.008.43.002.6.03-.236.396-.497.776-.78 1.14l-.72-.12c.215-.29.415-.59.6-.9l.24-.24Z" opacity=".976"/>
  <path fill="#e33c17" d="M6.879 12.78c.06.096.158.162.27.18.5-.04 1.01-.04 1.53 0l-.3.72h-1.86c.096-.309.216-.61.36-.9Z" opacity=".984"/>
  <path fill="#fed500" d="M9.699 12.9c-.004.072.03.14.09.18a20.103 20.103 0 0 1 2.43 0c-.185.31-.385.61-.6.9a.618.618 0 0 0-.18.18 5.318 5.318 0 0 0-.39-.12c-.558.039-1.138.059-1.74.06a.202.202 0 0 1-.09-.18c.113-.36.274-.704.48-1.02Z"/>
  <path fill="#fee959" d="M8.979 12.42c.018.048.049.09.09.12l.54-.06c.074.033.144.073.21.12a.988.988 0 0 1-.12.3c-.206.316-.367.66-.48 1.02-.04 0-.06.02-.06.06-.19-.003-.38-.003-.57 0a.296.296 0 0 1-.21-.18v-.12c.099-.235.199-.475.3-.72.084-.189.184-.369.3-.54Z"/>
  <path fill="#e55415" d="M6.519 13.68h1.86v.12a2.625 2.625 0 0 0-.18.6c-.64.019-1.282-.001-1.92-.06l.24-.66Z" opacity=".997"/>
  <path fill="#e86614" d="m11.619 13.98.72.12-.66.96a.736.736 0 0 0-.39.06c-.102-.076-.202-.096-.3-.06a.149.149 0 0 1-.03-.12c.145-.269.305-.53.48-.78a.618.618 0 0 1 .18-.18Z" opacity=".96"/>
  <path fill="#feec73" d="M8.379 13.8a.296.296 0 0 0 .21.18c.19-.003.38-.003.57 0a11.614 11.614 0 0 0-.54 1.8 1.176 1.176 0 0 0-.66 0 1.5 1.5 0 0 1 .06-.48c.028-.306.088-.607.18-.9.038-.213.098-.413.18-.6Z"/>
  <path fill="#e96e13" d="M6.279 14.34c.638.059 1.28.079 1.92.06a4.312 4.312 0 0 0-.18.9l-1.98.12c.072-.362.152-.722.24-1.08Z" opacity=".99"/>
  <path fill="#eb7a11" d="M10.959 14.94a.149.149 0 0 0 .03.12c.098-.036.198-.016.3.06a.736.736 0 0 1 .39-.06 8.02 8.02 0 0 1-.54.78c-.086-.052-.166-.052-.24 0-.062-.15-.112-.15-.15 0a.608.608 0 0 0-.21-.18 2.08 2.08 0 0 1 .42-.72Z" opacity=".981"/>
  <path fill="#fee42d" d="M16.179 16.02c-.36-.04-.71-.04-1.05 0a3.82 3.82 0 0 1-.33-.12 6.7 6.7 0 0 0 1.35-2.16c.03.76.04 1.52.03 2.28Z"/>
  <path fill="#eb7e0d" d="M8.019 15.3a1.5 1.5 0 0 0-.06.48v.12a2.314 2.314 0 0 0-.27.12 5.028 5.028 0 0 0-1.5 0 1.066 1.066 0 0 0-.21-.12c.036-.158.056-.318.06-.48l1.98-.12Z"/>
  <path fill="#ffe41b" d="M9.219 13.92c-.004.072.03.14.09.18.581 0 1.161-.02 1.74-.06.131.035.262.075.39.12-.175.25-.335.511-.48.78a2.08 2.08 0 0 0-.42.72 5.7 5.7 0 0 0-.6 1.44 4.18 4.18 0 0 0-.3 1.26c-.04 0-.06.02-.06.06a2.076 2.076 0 0 0-.96 0 7.552 7.552 0 0 1 0-2.64c.131-.614.312-1.216.54-1.8 0-.04.02-.06.06-.06Z"/>
  <path fill="#ed8a08" d="M5.979 15.9c.074.032.145.072.21.12a5.028 5.028 0 0 1 1.5 0c.088-.046.178-.086.27-.12v.12c-.059.173-.08.358-.06.54-.64.019-1.282-.001-1.92-.06v-.6Z" opacity=".979"/>
  <path fill="#ef8f0e" d="M10.539 15.66c.08.041.15.101.21.18.038-.15.088-.15.15 0 .074-.052.154-.052.24 0l-.6 1.32c-.18-.017-.35.003-.51.06a.262.262 0 0 1-.09-.12c.134-.505.336-.99.6-1.44Z" opacity=".967"/>
  <path fill="#f09704" d="M5.979 16.5c.638.059 1.28.079 1.92.06v.6c-.571-.01-1.141.01-1.71.06a.418.418 0 0 0-.15-.12 1.736 1.736 0 0 1-.06-.6Z"/>
  <path fill="#fee84d" d="M14.799 15.9c.108.045.218.085.33.12.34-.04.69-.04 1.05 0-.041.422-.101.843-.18 1.26h-2.58c.44-.48.9-.94 1.38-1.38Z"/>
  <path fill="#f2a403" d="M7.959 16.02v1.74c-.41.014-.82.014-1.23 0l-.09.09c-.19.006-.37.016-.54.03a6.79 6.79 0 0 1-.06-.78c.059.028.11.069.15.12.569-.05 1.139-.07 1.71-.06v-.6c-.02-.182.001-.367.06-.54Z" opacity=".998"/>
  <path fill="#fff29d" d="M8.619 15.78a7.552 7.552 0 0 0 0 2.64.639.639 0 0 0-.21-.24.702.702 0 0 0-.21.06 6.377 6.377 0 0 1-.24-1.02v-1.44c.216-.063.445-.063.66 0Z"/>
  <path fill="#f5b000" d="M7.959 17.76c.078.267.118.547.12.84-.6-.008-1.2-.008-1.8 0 .01-.06-.01-.1-.06-.12a2.671 2.671 0 0 0-.12-.6c.17-.014.35-.024.54-.03l.09-.09c.41.014.82.014 1.23 0Z" opacity=".988"/>
  <path fill="#f4ae01" d="M9.939 17.1c.018.048.049.09.09.12.16-.057.33-.077.51-.06-.184.451-.344.912-.48 1.38-.13.042-.25.062-.36.06a.289.289 0 0 1-.06-.24 4.18 4.18 0 0 1 .3-1.26Z" opacity=".961"/>
  <path fill="#feec67" d="M13.419 17.28h2.58a4.527 4.527 0 0 1-.18 1.02c-.923.026-1.843.046-2.76.06l-.36-.03a.138.138 0 0 1-.06-.09c.231-.343.492-.664.78-.96Z"/>
  <path fill="#fff5b6" d="M8.619 18.42c.03.254.09.494.18.72.031.182.071.362.12.54-.117-.1-.197-.08-.24.06a5.498 5.498 0 0 1-.48-1.5.702.702 0 0 1 .21-.06.639.639 0 0 1 .21.24Z"/>
  <path fill="#feee7c" d="M12.639 18.24c.007.037.029.07.06.09l.36.03c.917-.014 1.837-.034 2.76-.06a10.18 10.18 0 0 1-.24.84h-3.48c.135-.33.315-.63.54-.9Z"/>
  <path fill="#f8bc00" d="M8.079 18.6c.105.201.165.421.18.66a5.973 5.973 0 0 0-1.11.06 31.858 31.858 0 0 0-.63-.12c-.05-.02-.07-.06-.06-.12-.04 0-.06-.02-.06-.06v-.06c.01-.06-.01-.1-.06-.12v-.06c.01-.06-.01-.1-.06-.12v-.06c.6-.008 1.2-.008 1.8 0Z" opacity=".988"/>
  <path fill="#ffed5d" d="m9.579 18.42-.06.72h-.72a2.88 2.88 0 0 1-.18-.72c.337-.075.657-.075.96 0Z"/>
  <path fill="#fff07d" d="M8.799 19.14h.72v.84h-.48l-.12-.3a5.535 5.535 0 0 1-.12-.54Z"/>
  <path fill="#fac602" d="M9.639 18.36a.289.289 0 0 0 .06.24c.11.002.23-.018.36-.06a33.992 33.992 0 0 0-.18 1.56.202.202 0 0 0-.09.12 2.174 2.174 0 0 0-.27-.12v-.96l.06-.72c0-.04.02-.06.06-.06Z" opacity=".934"/>
  <path fill="#fac901" d="M6.519 19.2c.21.038.42.078.63.12a5.973 5.973 0 0 1 1.11-.06c.112.215.212.435.3.66.008.102.028.203.06.3-.61-.037-1.13-.037-1.56 0a4.156 4.156 0 0 1-.54-1.02Z" opacity=".995"/>
  <path fill="#fef091" d="M12.099 19.14h3.48c-.123.347-.263.687-.42 1.02-1.039.033-2.099.053-3.18.06-.11-.005-.19-.045-.24-.12.055-.349.175-.669.36-.96Z"/>
  <path fill="#ffed6f" d="M7.959 17.22c.052.346.132.687.24 1.02.09.528.25 1.028.48 1.5v.12c-.06-.01-.1.01-.12.06a6.747 6.747 0 0 0-.3-.66 1.607 1.607 0 0 0-.18-.66c0-.284-.041-.567-.12-.84v-.54Z"/>
  <path fill="#fff4a1" d="M9.039 19.98h.48v.12c.023.322.063.642.12.96a.32.32 0 0 1-.21-.18l-.39-.9Z"/>
  <path fill="#fed80d" d="M9.519 20.1c.092.034.182.074.27.12a.202.202 0 0 1 .09-.12c.024.583.084 1.164.18 1.74a1.275 1.275 0 0 1-.33-.42 1.213 1.213 0 0 1-.09-.36 9.12 9.12 0 0 1-.12-.96Z" opacity=".912"/>
  <path fill="#fff6b1" d="M8.679 19.86c.224.377.424.768.6 1.17a.416.416 0 0 1-.12.21 12.26 12.26 0 0 1-.54-1.02 1.277 1.277 0 0 1-.06-.3c.02-.05.06-.07.12-.06Z"/>
  <path fill="#fef3ab" d="M11.739 20.1c.05.075.13.115.24.12 1.081-.007 2.141-.027 3.18-.06-.188.378-.409.74-.66 1.08h-2.88v-.54c-.01-.217.03-.417.12-.6Z"/>
  <path fill="#fedd0a" d="M8.619 20.22c.164.348.344.688.54 1.02.269.538.601 1.041.99 1.5-.08-.26-.18-.52-.3-.78a.15.15 0 0 1 0-.18c.17.18.3.38.39.6.068.295.18.578.33.84.179.268.37.528.57.78h-.06a78.614 78.614 0 0 1-2.22-1.59c-.449-.379-.87-.79-1.26-1.23.026.004.046-.006.06-.03a4.646 4.646 0 0 1-.6-.93c.43-.037.95-.037 1.56 0Z" opacity=".982"/>
  <path fill="#fffbdf" d="m8.919 19.68.12.3.39.9a.32.32 0 0 0 .21.18c.011.124.042.245.09.36.082.166.192.306.33.42.248.359.508.709.78 1.05-.04.04-.08.04-.12 0a1.942 1.942 0 0 0-.48-.51c-.09-.22-.22-.42-.39-.6a.15.15 0 0 0 0 .18c.12.26.22.52.3.78a7.521 7.521 0 0 1-.99-1.5.416.416 0 0 0 .12-.21 10.659 10.659 0 0 0-.6-1.17v-.12c.043-.14.123-.16.24-.06Z"/>
  <path fill="#fef2bf" d="M11.619 20.7v.54h2.88a3.636 3.636 0 0 1-.42.63 4.64 4.64 0 0 0 2.13-.81c-.2.491-.51.911-.93 1.26h-3.6a4.415 4.415 0 0 1-.06-1.62Z"/>
  <path fill="#fef7d5" d="M11.679 22.32h3.6a3.687 3.687 0 0 1-1.14.84c-.028-.072-.088-.112-.18-.12-.627.028-1.277.028-1.95 0a.148.148 0 0 0-.03.12 3.342 3.342 0 0 1-.3-.84Z"/>
  <path fill="#fef7e2" d="M14.139 23.16a7.074 7.074 0 0 1-1.98.6l-.18-.6a.148.148 0 0 1 .03-.12c.673.028 1.323.028 1.95 0 .092.008.152.048.18.12Z"/>
  <g transform="translate(-70.638 -3.055)">
    <circle cx="88.12" cy="7.43" r="1.128" fill="none" stroke="#E12B28" stroke-width=".4"/>
    <path fill="#ec1f28" d="M87.651 7.987V6.775h.514a.88.88 0 0 1 .284.033c.059.022.105.06.14.116.036.056.053.12.053.191a.325.325 0 0 1-.079.225.385.385 0 0 1-.241.112.563.563 0 0 1 .132.102c.034.037.08.102.138.197l.149.236h-.293l-.178-.263a1.754 1.754 0 0 0-.127-.179.198.198 0 0 0-.074-.05.385.385 0 0 0-.124-.014h-.048v.506h-.246Zm.246-.699h.18c.118 0 .19-.006.22-.016a.12.12 0 0 0 .068-.051.151.151 0 0 0 .026-.091.149.149 0 0 0-.033-.098.14.14 0 0 0-.093-.047 1.804 1.804 0 0 0-.178-.005h-.19v.308Z"/>
  </g>
</symbol>
</defs>
</svg>