<svg width="162" height="157" viewBox="0 0 162 157" fill="none" xmlns="http://www.w3.org/2000/svg">
<path fill-rule="evenodd" clip-rule="evenodd" d="M70.4943 45.9625H46.0569C41.5767 45.9625 37.9519 49.6346 37.9519 54.1227L37.9111 103.084C37.9111 107.572 41.5767 111.244 46.0569 111.244H111.223C115.703 111.244 119.369 107.572 119.369 103.084V62.2829C119.369 57.7948 115.703 54.1227 111.223 54.1227H78.6401L70.4943 45.9625Z" fill="#D9E8F6"/>
<path fill-rule="evenodd" clip-rule="evenodd" d="M118.94 78.696H116.752L115.977 77.9484C118.691 74.7918 120.324 70.6938 120.324 66.2358C120.324 56.2954 112.267 48.2378 102.326 48.2378C92.3857 48.2378 84.3281 56.2954 84.3281 66.2358C84.3281 76.1763 92.3857 84.2339 102.326 84.2339C106.784 84.2339 110.882 82.6002 114.039 79.8867L114.786 80.662V82.8494L127.902 96.4755C127.902 96.4755 128.529 96.3452 130.526 94.4352C132.522 92.5252 132.566 92.1035 132.566 92.1035L118.94 78.696ZM102.326 78.696C95.4315 78.696 89.866 73.1305 89.866 66.2358C89.866 59.3412 95.4315 53.7757 102.326 53.7757C109.221 53.7757 114.786 59.3412 114.786 66.2358C114.786 73.1305 109.221 78.696 102.326 78.696Z" fill="#73B3E7"/>
<circle cx="102.304" cy="66.2131" r="12.5145" fill="#F7F9FA"/>
</svg>
