<svg width="32" height="32" xmlns="http://www.w3.org/2000/svg">
    <g class="layer">
        <path
            d="M2.3153 10.1453h19.6v4.43c0 .59.35 1.12.88 1.35.54.23 1.16.13 1.59-.27l6.86-6.4c.63-.58.63-1.58 0-2.16l-6.86-6.4c-.43-.4-1.05-.51-1.59-.27-.54.23-.88.77-.88 1.35v4.43h-19.6c-1.08 0-1.96.88-1.96 1.91s.88 2.02 1.96 2.02v.01zm27.45 11.81h-19.6l-.01-4.48c0-.59-.35-1.12-.88-1.35-.53-.18-1.16-.07-1.59.33l-6.86 6.4c-.63.58-.63 1.58 0 2.16l6.86 6.4c.43.4 1.05.51 1.59.27.54-.23.88-.77.88-1.35l.01-4.43h19.6c1.08 0 1.96-.88 1.96-1.97s-.88-1.97-1.96-1.97v-.01z"
            fill="currentColor"/>
    </g>
</svg>