<svg width="74" height="43" viewBox="0 0 74 43" fill="none" xmlns="http://www.w3.org/2000/svg">
<path d="M0.901001 0.798096H70.128V42.5231H0.901001V0.798096Z" fill="#105EAB"/>
<path d="M29.3203 42.5136L70.1118 1.18708V0.773926H69.9078L28.7092 42.5136H29.3203ZM3.5992 42.5136L6.35627 0.773926H5.9218L3.16473 42.5136H3.5992ZM5.80506 42.5136L11.7608 0.773926H11.3202L5.36754 42.5136H5.80506ZM8.16521 42.5136L17.482 0.773926H17.0404L7.71957 42.5136H8.16521ZM10.7578 42.5136L24.0549 0.773926H23.6062L10.3051 42.5136H10.7578ZM13.2022 42.5136L30.2857 0.773926H29.8157L12.7312 42.5136H13.2022ZM16.0141 42.5136L37.3824 0.773926H36.9042L15.5248 42.5136H16.0141ZM48.0584 0.773926H47.5396L19.8756 42.5136H20.3933L48.0584 0.773926ZM57.9233 0.773926H57.3772L23.7463 42.5136H24.3005L57.9233 0.773926ZM70.1118 16.5682V16.02L36.7642 42.5136H37.4514L70.1118 16.5682ZM70.1118 28.0492V27.5396L46.154 42.5136H46.9742L70.1118 28.0492ZM70.1118 38.8835V38.4003L61.2965 42.5136H62.3198L70.1118 38.8835Z" fill="white"/>
<path d="M21.5648 25.8686C20.708 26.6889 18.5549 27.574 16.9744 27.5578C12.3759 27.5537 10.2269 23.6455 10.1873 17.6756C10.2188 12.0244 12.5373 8.4289 16.5206 8.42179C19.3691 8.42687 20.7537 10.0775 21.51 11.0621L22.3434 12.1737V7.03615L22.0774 6.91333C20.436 6.14996 18.3509 5.79263 16.4506 5.78857C9.30011 5.80482 3.84182 10.9302 3.83167 18.1669C3.84182 25.5895 9.00065 30.2489 16.3887 30.2611H16.4262C20.0949 30.2611 21.9759 29.1546 22.9687 28.3943L23.2631 28.1709L22.0388 25.423L21.5648 25.8686ZM41.6022 8.45732C39.2086 6.70218 36.2119 6.18345 33.6559 6.18345H24.9218V29.8408H34.2243C38.7355 29.8306 45.7073 26.968 45.7185 17.9467C45.7266 13.2243 44.003 10.2135 41.6022 8.45732ZM30.6663 27.0949V8.85423C34.8913 8.96691 39.3862 9.48158 39.4664 18.0421C39.3984 26.3569 34.7989 26.9812 30.6663 27.0949ZM65.6423 25.425L65.1682 25.8697C64.3104 26.6919 62.1645 27.574 60.5849 27.5578C55.9854 27.5578 53.8344 23.6455 53.7958 17.6776C53.8273 12.0245 56.1489 8.42991 60.1373 8.42281C62.9816 8.42585 64.3693 10.0785 65.1103 11.0631L65.9478 12.1879V7.0392L65.6829 6.91434C64.0495 6.14793 61.9655 5.79466 60.0571 5.7906C52.9086 5.80583 47.4645 10.9312 47.4523 18.169C47.4645 25.5925 52.6102 30.2489 60.0022 30.2631H60.0601C63.7156 30.2631 65.5895 29.1556 66.5833 28.3973L66.8776 28.1719L65.6423 25.425Z" fill="white"/>
<path d="M71.3594 41.3555H72.1938V41.4793H71.8446V42.3757H71.7126V41.4793H71.3594V41.3555ZM73.1643 42.3746V41.7625V41.5128L72.8739 42.3746H72.7379L72.4506 41.5128H72.4476C72.4476 41.6092 72.4506 41.7412 72.4506 41.7625V42.3746H72.3146V41.3555H72.5085L72.8059 42.2193H72.81L73.0952 41.3555H73.2942V42.3746H73.1643Z" fill="#0033A0"/>
</svg>
