<svg width="136" height="136" viewBox="0 0 136 136" fill="none" xmlns="http://www.w3.org/2000/svg">
<path d="M123.914 22.2328L72.9141 0.982811C71.3605 0.338349 69.6952 0.00662231 68.0133 0.00662231C66.3314 0.00662231 64.666 0.338349 63.1125 0.982811L12.1125 22.2328C7.35781 24.1984 4.25 28.8469 4.25 34C4.25 86.7266 34.6641 123.17 63.0859 135.017C66.2203 136.319 69.7531 136.319 72.8875 135.017C95.6516 125.534 131.75 92.7828 131.75 34C131.75 28.8469 128.642 24.1984 123.914 22.2328ZM68.0266 118.548L68 17.3453L114.723 36.8156C113.847 77.0312 92.9156 106.17 68.0266 118.548Z" fill="#005EA2"/>
<path fill-rule="evenodd" clip-rule="evenodd" d="M68.1 17.387L114.723 36.8156C113.847 77.006 92.9419 106.134 68.0735 118.525L68.0734 118.548C68.0656 118.545 68.0578 118.541 68.05 118.537C68.0422 118.541 68.0344 118.545 68.0266 118.548L68.0266 118.525C43.1581 106.134 22.2526 77.006 21.3766 36.8156L68 17.387L68 17.3453L68.05 17.3662L68.1 17.3453L68.1 17.387Z" fill="#D9E8F6"/>
<path d="M68 17.3453L68.0266 118.548C92.9156 106.17 113.847 77.0313 114.723 36.8156L68 17.3453Z" fill="white"/>
<path d="M56.7325 94.0672L33.2172 70.4167C31.8044 68.9959 31.8044 66.6921 33.2172 65.271L38.3333 60.1254C39.746 58.7043 42.0368 58.7043 43.4496 60.1254L59.2906 76.0573L93.2203 41.9327C94.6331 40.5118 96.9238 40.5118 98.3366 41.9327L103.453 47.0784C104.865 48.4992 104.865 50.803 103.453 52.224L61.8487 94.0674C60.4358 95.4883 58.1452 95.4883 56.7325 94.0672Z" fill="#1A4480"/>
</svg>
