<svg width="66" height="66" viewBox="0 0 66 66" fill="none" xmlns="http://www.w3.org/2000/svg">
<path fill-rule="evenodd" clip-rule="evenodd" d="M63.0625 28.125C61.73 28.125 60.625 29.23 60.625 30.5625H55.62C55.1325 26.11 53.3775 22.015 50.68 18.7L54.2225 15.1575L54.255 15.19C55.1975 16.1325 56.7575 16.1325 57.7 15.19C58.6425 14.2475 58.6425 12.6875 57.7 11.745L54.255 8.3C53.3125 7.3575 51.7525 7.3575 50.81 8.3C49.8675 9.2425 49.8675 10.77 50.7775 11.7125L47.235 15.255C43.92 12.59 39.8575 10.835 35.405 10.3475V5.375H35.4375C36.77 5.375 37.875 4.27 37.875 2.9375C37.875 1.605 36.77 0.5 35.4375 0.5H30.5625C29.23 0.5 28.125 1.605 28.125 2.9375C28.125 4.27 29.1975 5.3425 30.53 5.375V10.4125C26.0775 10.8675 22.015 12.655 18.7 15.32L15.1575 11.7775L15.19 11.745C16.1325 10.8025 16.1325 9.2425 15.19 8.3C14.2475 7.3575 12.6875 7.3575 11.745 8.3L8.3 11.745C7.3575 12.6875 7.3575 14.2475 8.3 15.19C9.2425 16.1325 10.77 16.1325 11.7125 15.2225L15.255 18.765C12.59 22.08 10.835 26.11 10.38 30.5625H5.375C5.375 29.23 4.27 28.125 2.9375 28.125C1.605 28.125 0.5 29.23 0.5 30.5625V35.4375C0.5 36.77 1.605 37.875 2.9375 37.875C4.27 37.875 5.375 36.77 5.375 35.4375H10.38C10.8675 39.89 12.6225 43.92 15.255 47.235L11.7125 50.7775C10.77 49.835 9.2425 49.8675 8.3 50.81C7.3575 51.7525 7.3575 53.3125 8.3 54.255L11.745 57.7C12.6875 58.6425 14.2475 58.6425 15.19 57.7C16.1325 56.7575 16.1325 55.1975 15.19 54.255L15.1575 54.2225L18.7 50.68C22.015 53.345 26.045 55.1 30.4975 55.5875V60.625C29.165 60.6575 28.0925 61.73 28.0925 63.0625C28.0925 64.395 29.1975 65.5 30.53 65.5H35.405C36.7375 65.5 37.8425 64.395 37.8425 63.0625C37.8425 61.73 36.7375 60.625 35.405 60.625H35.3725V55.62C39.825 55.165 43.8875 53.3775 47.2025 50.7125L50.745 54.255C49.8025 55.1975 49.835 56.725 50.7775 57.6675C51.72 58.61 53.28 58.61 54.2225 57.6675L57.6675 54.2225C58.61 53.28 58.61 51.72 57.6675 50.7775C56.725 49.835 55.165 49.835 54.2225 50.7775L54.19 50.81L50.6475 47.2675C53.3125 43.9525 55.1 39.89 55.5875 35.405H60.5925C60.5925 36.7375 61.6975 37.8425 63.03 37.8425C64.3625 37.8425 65.4675 36.7375 65.4675 35.405V30.53C65.5 29.23 64.395 28.125 63.0625 28.125ZM38.6875 20C40.475 20 41.9375 21.4625 41.9375 23.25C41.9375 25.0375 40.475 26.5 38.6875 26.5C36.9 26.5 35.4375 25.0375 35.4375 23.25C35.4375 21.4625 36.9 20 38.6875 20ZM33 36.25C31.2125 36.25 29.75 34.7875 29.75 33C29.75 31.2125 31.2125 29.75 33 29.75C34.7875 29.75 36.25 31.2125 36.25 33C36.25 34.7875 34.7875 36.25 33 36.25ZM27.3125 20C29.1 20 30.5625 21.4625 30.5625 23.25C30.5625 25.0375 29.1 26.5 27.3125 26.5C25.525 26.5 24.0625 25.0375 24.0625 23.25C24.0625 21.4625 25.525 20 27.3125 20ZM21.625 36.25C19.8375 36.25 18.375 34.7875 18.375 33C18.375 31.2125 19.8375 29.75 21.625 29.75C23.4125 29.75 24.875 31.2125 24.875 33C24.875 34.7875 23.4125 36.25 21.625 36.25ZM27.3125 46C25.525 46 24.0625 44.5375 24.0625 42.75C24.0625 40.9625 25.525 39.5 27.3125 39.5C29.1 39.5 30.5625 40.9625 30.5625 42.75C30.5625 44.5375 29.1 46 27.3125 46ZM38.6875 46C36.9 46 35.4375 44.5375 35.4375 42.75C35.4375 40.9625 36.9 39.5 38.6875 39.5C40.475 39.5 41.9375 40.9625 41.9375 42.75C41.9375 44.5375 40.475 46 38.6875 46ZM41.125 33C41.125 31.2125 42.5875 29.75 44.375 29.75C46.1625 29.75 47.625 31.2125 47.625 33C47.625 34.7875 46.1625 36.25 44.375 36.25C42.5875 36.25 41.125 34.7875 41.125 33Z" fill="#005EA2"/>
</svg>
