<svg width="56" height="56" viewBox="0 0 56 56" fill="none" xmlns="http://www.w3.org/2000/svg">
<path fill-rule="evenodd" clip-rule="evenodd" d="M49.6667 11.75H38.8334V6.33335C38.8334 3.35419 36.3959 0.916687 33.4167 0.916687H22.5834C19.6042 0.916687 17.1667 3.35419 17.1667 6.33335V11.75H6.33335C3.35419 11.75 0.916687 14.1875 0.916687 17.1667V49.6667C0.916687 52.6459 3.35419 55.0834 6.33335 55.0834H49.6667C52.6459 55.0834 55.0834 52.6459 55.0834 49.6667V17.1667C55.0834 14.1875 52.6459 11.75 49.6667 11.75ZM22.5834 6.33335H33.4167V11.75H22.5834V6.33335ZM38.8334 36.125H30.7084V44.25H25.2917V36.125H17.1667V30.7084H25.2917V22.5834H30.7084V30.7084H38.8334V36.125Z" fill="#005EA2"/>
</svg>
