<svg width="61" height="62" viewBox="0 0 61 62" fill="none" xmlns="http://www.w3.org/2000/svg">
<g clip-path="url(#clip0_1379_2286)">
<path d="M34.3123 4.3125C34.3123 2.20371 32.6086 0.5 30.4998 0.5C28.391 0.5 26.6873 2.20371 26.6873 4.3125V29.0938C26.6873 30.1422 25.8295 31 24.7811 31C23.7326 31 22.8748 30.1422 22.8748 29.0938V8.125C22.8748 6.01621 21.1711 4.3125 19.0623 4.3125C16.9535 4.3125 15.2498 6.01621 15.2498 8.125V40.5312C15.2498 40.71 15.2498 40.9006 15.2617 41.0793L8.05372 34.2168C6.14747 32.4059 3.13321 32.4773 1.31036 34.3836C-0.512489 36.2898 -0.429091 39.3041 1.47716 41.127L14.8686 53.875C20.0035 58.7717 26.8303 61.5 33.9311 61.5H36.2186C47.799 61.5 57.1873 52.1117 57.1873 40.5312V15.75C57.1873 13.6412 55.4836 11.9375 53.3748 11.9375C51.266 11.9375 49.5623 13.6412 49.5623 15.75V29.0938C49.5623 30.1422 48.7045 31 47.6561 31C46.6076 31 45.7498 30.1422 45.7498 29.0938V8.125C45.7498 6.01621 44.0461 4.3125 41.9373 4.3125C39.8285 4.3125 38.1248 6.01621 38.1248 8.125V29.0938C38.1248 30.1422 37.267 31 36.2186 31C35.1701 31 34.3123 30.1422 34.3123 29.0938V4.3125ZM28.5936 40.5312C28.5936 40.0257 28.7944 39.5408 29.1519 39.1833C29.5094 38.8258 29.9942 38.625 30.4998 38.625C31.0054 38.625 31.4902 38.8258 31.8477 39.1833C32.2052 39.5408 32.4061 40.0257 32.4061 40.5312C32.4061 41.0368 32.2052 41.5217 31.8477 41.8792C31.4902 42.2367 31.0054 42.4375 30.4998 42.4375C29.9942 42.4375 29.5094 42.2367 29.1519 41.8792C28.7944 41.5217 28.5936 41.0368 28.5936 40.5312ZM38.1248 42.4375C38.6304 42.4375 39.1152 42.6383 39.4727 42.9958C39.8302 43.3533 40.0311 43.8382 40.0311 44.3438C40.0311 44.8493 39.8302 45.3342 39.4727 45.6917C39.1152 46.0492 38.6304 46.25 38.1248 46.25C37.6192 46.25 37.1344 46.0492 36.7769 45.6917C36.4194 45.3342 36.2186 44.8493 36.2186 44.3438C36.2186 43.8382 36.4194 43.3533 36.7769 42.9958C37.1344 42.6383 37.6192 42.4375 38.1248 42.4375ZM43.8436 40.5312C43.8436 40.0257 44.0444 39.5408 44.4019 39.1833C44.7594 38.8258 45.2442 38.625 45.7498 38.625C46.2554 38.625 46.7402 38.8258 47.0977 39.1833C47.4552 39.5408 47.6561 40.0257 47.6561 40.5312C47.6561 41.0368 47.4552 41.5217 47.0977 41.8792C46.7402 42.2367 46.2554 42.4375 45.7498 42.4375C45.2442 42.4375 44.7594 42.2367 44.4019 41.8792C44.0444 41.5217 43.8436 41.0368 43.8436 40.5312ZM41.9373 50.0625C42.4429 50.0625 42.9277 50.2633 43.2852 50.6208C43.6427 50.9783 43.8436 51.4632 43.8436 51.9688C43.8436 52.4743 43.6427 52.9592 43.2852 53.3167C42.9277 53.6742 42.4429 53.875 41.9373 53.875C41.4317 53.875 40.9469 53.6742 40.5894 53.3167C40.2319 52.9592 40.0311 52.4743 40.0311 51.9688C40.0311 51.4632 40.2319 50.9783 40.5894 50.6208C40.9469 50.2633 41.4317 50.0625 41.9373 50.0625ZM28.5936 51.9688C28.5936 51.4632 28.7944 50.9783 29.1519 50.6208C29.5094 50.2633 29.9942 50.0625 30.4998 50.0625C31.0054 50.0625 31.4902 50.2633 31.8477 50.6208C32.2052 50.9783 32.4061 51.4632 32.4061 51.9688C32.4061 52.4743 32.2052 52.9592 31.8477 53.3167C31.4902 53.6742 31.0054 53.875 30.4998 53.875C29.9942 53.875 29.5094 53.6742 29.1519 53.3167C28.7944 52.9592 28.5936 52.4743 28.5936 51.9688ZM22.8748 46.25C23.3804 46.25 23.8652 46.4508 24.2227 46.8083C24.5802 47.1658 24.7811 47.6507 24.7811 48.1562C24.7811 48.6618 24.5802 49.1467 24.2227 49.5042C23.8652 49.8617 23.3804 50.0625 22.8748 50.0625C22.3692 50.0625 21.8844 49.8617 21.5269 49.5042C21.1694 49.1467 20.9686 48.6618 20.9686 48.1562C20.9686 47.6507 21.1694 47.1658 21.5269 46.8083C21.8844 46.4508 22.3692 46.25 22.8748 46.25Z" fill="#005EA2"/>
</g>
<defs>
<clipPath id="clip0_1379_2286">
<rect width="61" height="61" fill="white" transform="translate(0 0.5)"/>
</clipPath>
</defs>
</svg>
